# Blender v2.93.5 OBJ File: ''
# www.blender.org
mtllib paddle.mtl
o Cube
v -1.000000 1.000000 1.000000
v -1.000000 -1.000000 1.000000
v -1.000000 1.000000 -1.000000
v -1.000000 -1.000000 -1.000000
v 1.000000 1.000000 1.000000
v 1.000000 -1.000000 1.000000
v 1.000000 1.000000 -1.000000
v 1.000000 -1.000000 -1.000000
v -3.000000 1.000000 1.000000
v -3.000000 -1.000000 1.000000
v -3.000000 1.000000 -1.000000
v -3.000000 -1.000000 -1.000000
v 3.000000 -1.000000 -1.000000
v 3.000000 1.000000 -1.000000
v 3.000000 -1.000000 1.000000
v 3.000000 1.000000 1.000000
v -5.000000 1.000000 1.000000
v -5.000000 -1.000000 1.000000
v -5.000000 1.000000 -1.000000
v -5.000000 -1.000000 -1.000000
v 5.000000 1.000000 1.000000
v 5.000000 -1.000000 1.000000
v 5.000000 1.000000 -1.000000
v 5.000000 -1.000000 -1.000000
vt 0.400000 0.725000
vt 0.600000 0.525000
vt 0.600000 0.725000
vt 0.600000 0.725000
vt 0.400000 0.525000
vt 0.600000 0.525000
vt 0.400000 0.725000
vt 0.600000 0.525000
vt 0.600000 0.725000
vt 0.400000 0.725000
vt 0.400000 0.525000
vt 0.600000 0.525000
vt 0.400000 0.525000
vt 0.800000 0.525000
vt 0.800000 0.725000
vt 0.800000 0.725000
vt 0.800000 0.525000
vt 0.600000 0.725000
vt 0.400000 0.525000
vt 0.600000 0.525000
vt 0.800000 0.725000
vt 0.600000 0.725000
vt 0.400000 0.525000
vt 0.600000 0.525000
vt 0.800000 0.525000
vt 1.000000 0.525000
vt 1.000000 0.725000
vt 1.000000 0.725000
vt 1.000000 0.525000
vt 1.000000 0.725000
vt 0.600000 0.725000
vt 0.400000 0.525000
vt 0.600000 0.525000
vt 1.000000 0.525000
vt 0.200000 0.725000
vt 0.400000 0.525000
vt 0.200000 0.525000
vt 0.200000 0.725000
vt 0.200000 0.525000
vt 0.200000 0.725000
vt 0.000000 0.525000
vt 0.000000 0.725000
vt 0.000000 0.525000
vt 0.000000 0.725000
vt 0.400000 0.725000
vt 0.600000 0.525000
vt 0.400000 0.525000
vt 0.200000 0.525000
vt 0.600000 0.725000
vt 0.400000 0.725000
vt 0.400000 0.725000
vt 0.400000 0.725000
vt 0.400000 0.725000
vt 0.000000 0.725000
vt 0.600000 0.725000
vt 0.000000 0.525000
vn 0.0000 1.0000 0.0000
vn 0.0000 0.0000 -1.0000
vn 1.0000 0.0000 0.0000
vn 0.0000 -1.0000 0.0000
vn -1.0000 0.0000 0.0000
vn 0.0000 0.0000 1.0000
usemtl Material
s off
f 5/1/1 3/2/1 1/3/1
f 3/4/2 8/5/2 4/6/2
f 7/7/3 6/8/3 8/5/3
f 2/9/4 8/5/4 6/10/4
f 1/3/5 4/11/5 2/12/5
f 5/1/6 2/12/6 6/13/6
f 1/3/1 11/14/1 9/15/1
f 11/16/2 4/6/2 12/17/2
f 16/18/5 13/19/5 15/20/5
f 10/21/4 4/6/4 2/9/4
f 9/22/5 12/23/5 10/24/5
f 1/3/6 10/25/6 2/12/6
f 9/15/1 19/26/1 17/27/1
f 19/28/2 12/17/2 20/29/2
f 18/30/4 12/17/4 10/21/4
f 17/31/5 20/32/5 18/33/5
f 9/15/6 18/34/6 10/25/6
f 16/35/1 7/36/1 5/1/1
f 7/7/2 13/37/2 8/5/2
f 6/10/4 13/37/4 15/38/4
f 16/35/6 6/13/6 15/39/6
f 14/40/2 24/41/2 13/37/2
f 21/42/6 15/39/6 22/43/6
f 15/38/4 24/41/4 22/44/4
f 23/45/3 22/46/3 24/47/3
f 21/42/1 14/48/1 16/35/1
f 5/1/1 7/36/1 3/2/1
f 3/4/2 7/7/2 8/5/2
f 7/7/3 5/49/3 6/8/3
f 2/9/4 4/6/4 8/5/4
f 1/3/5 3/50/5 4/11/5
f 5/1/6 1/3/6 2/12/6
f 1/3/1 3/2/1 11/14/1
f 11/16/2 3/4/2 4/6/2
f 16/18/5 14/51/5 13/19/5
f 10/21/4 12/17/4 4/6/4
f 9/22/5 11/52/5 12/23/5
f 1/3/6 9/15/6 10/25/6
f 9/15/1 11/14/1 19/26/1
f 19/28/2 11/16/2 12/17/2
f 18/30/4 20/29/4 12/17/4
f 17/31/5 19/53/5 20/32/5
f 9/15/6 17/27/6 18/34/6
f 16/35/1 14/48/1 7/36/1
f 7/7/2 14/40/2 13/37/2
f 6/10/4 8/5/4 13/37/4
f 16/35/6 5/1/6 6/13/6
f 14/40/2 23/54/2 24/41/2
f 21/42/6 16/35/6 15/39/6
f 15/38/4 13/37/4 24/41/4
f 23/45/3 21/55/3 22/46/3
f 21/42/1 23/56/1 14/48/1
